<mxfile modified="2022-01-09T09:19:26.848Z" host="app.diagrams.net" agent="5.0 (Windows NT 10.0; Win64; x64) AppleWebKit/537.36 (KHTML, like Gecko) Chrome/96.0.4664.110 Safari/537.36" etag="vp5oDcRh2Vqmvga8h9NE" version="16.2.4" type="github">
  <diagram id="Ht1M8jgEwFfnCIfOTk4-" name="Page-1">
    <mxGraphModel dx="1185" dy="628" grid="1" gridSize="10" guides="1" tooltips="1" connect="1" arrows="1" fold="1" page="1" pageScale="1" pageWidth="827" pageHeight="1169" math="0" shadow="0">
      <root>
        <mxCell id="0" />
        <mxCell id="1" parent="0" />
        <mxCell id="UJMu3p_16USaffAU7RMf-8" style="edgeStyle=orthogonalEdgeStyle;rounded=0;orthogonalLoop=1;jettySize=auto;html=1;entryX=0.5;entryY=0;entryDx=0;entryDy=0;" edge="1" parent="1" source="UJMu3p_16USaffAU7RMf-1" target="UJMu3p_16USaffAU7RMf-2">
          <mxGeometry relative="1" as="geometry" />
        </mxCell>
        <mxCell id="UJMu3p_16USaffAU7RMf-1" value="" style="sketch=0;html=1;dashed=0;whitespace=wrap;fillColor=#2875E2;strokeColor=#ffffff;points=[[0.005,0.63,0],[0.1,0.2,0],[0.9,0.2,0],[0.5,0,0],[0.995,0.63,0],[0.72,0.99,0],[0.5,1,0],[0.28,0.99,0]];shape=mxgraph.kubernetes.icon;prIcon=user" vertex="1" parent="1">
          <mxGeometry x="364" y="30" width="50" height="48" as="geometry" />
        </mxCell>
        <mxCell id="UJMu3p_16USaffAU7RMf-12" style="edgeStyle=orthogonalEdgeStyle;rounded=0;orthogonalLoop=1;jettySize=auto;html=1;startArrow=none;" edge="1" parent="1" source="UJMu3p_16USaffAU7RMf-16" target="UJMu3p_16USaffAU7RMf-10">
          <mxGeometry relative="1" as="geometry" />
        </mxCell>
        <mxCell id="UJMu3p_16USaffAU7RMf-13" style="edgeStyle=orthogonalEdgeStyle;rounded=0;orthogonalLoop=1;jettySize=auto;html=1;startArrow=none;" edge="1" parent="1" source="UJMu3p_16USaffAU7RMf-18" target="UJMu3p_16USaffAU7RMf-11">
          <mxGeometry relative="1" as="geometry" />
        </mxCell>
        <mxCell id="UJMu3p_16USaffAU7RMf-2" value="" style="strokeColor=#dddddd;shadow=1;strokeWidth=1;rounded=1;absoluteArcSize=1;arcSize=2;" vertex="1" parent="1">
          <mxGeometry x="339" y="150" width="100" height="60" as="geometry" />
        </mxCell>
        <mxCell id="UJMu3p_16USaffAU7RMf-3" value="CDN" style="sketch=0;dashed=0;connectable=0;html=1;fillColor=#5184F3;strokeColor=none;shape=mxgraph.gcp2.hexIcon;prIcon=cloud_cdn;part=1;labelPosition=right;verticalLabelPosition=middle;align=left;verticalAlign=middle;spacingLeft=5;fontColor=#999999;fontSize=12;" vertex="1" parent="UJMu3p_16USaffAU7RMf-2">
          <mxGeometry y="0.5" width="44" height="39" relative="1" as="geometry">
            <mxPoint x="5" y="-19.5" as="offset" />
          </mxGeometry>
        </mxCell>
        <mxCell id="UJMu3p_16USaffAU7RMf-5" value="" style="rounded=0;whiteSpace=wrap;html=1;fillColor=#EAEDED;fontSize=22;fontColor=#FFFFFF;strokeColor=none;labelBackgroundColor=none;" vertex="1" parent="1">
          <mxGeometry x="1160" y="10" width="520" height="1191" as="geometry" />
        </mxCell>
        <mxCell id="UJMu3p_16USaffAU7RMf-6" value="1" style="rounded=1;whiteSpace=wrap;html=1;fillColor=#007CBD;strokeColor=none;fontColor=#FFFFFF;fontStyle=1;fontSize=22;labelBackgroundColor=none;" vertex="1" parent="1">
          <mxGeometry x="1160" y="78" width="40" height="38" as="geometry" />
        </mxCell>
        <mxCell id="UJMu3p_16USaffAU7RMf-7" value="&lt;span&gt;Lorem ipsum dolor sit amet, consectetur adipiscing elit, sed do eiusmod tempor incididunt ut labore et dolore magna aliqua. Ut enim ad minim veniam, quis nostrud exercitation ullamco laboris nisi ut aliquip ex ea commodo consequat. Duis aute irure dolor in reprehenderit in voluptate velit esse cillum dolore eu fugiat nulla pariatur. Excepteur sint occaecat cupidatat non proident, sunt in culpa qui officia deserunt mollit anim id est laborum.&lt;/span&gt;&lt;br&gt;" style="text;html=1;align=left;verticalAlign=top;spacingTop=-4;fontSize=14;labelBackgroundColor=none;whiteSpace=wrap;" vertex="1" parent="1">
          <mxGeometry x="1220.5" y="78" width="449" height="118" as="geometry" />
        </mxCell>
        <mxCell id="UJMu3p_16USaffAU7RMf-9" value="https://api.zizi.press/gtw/*" style="html=1;strokeWidth=1;shadow=0;dashed=0;shape=mxgraph.ios7ui.url;fillColor=#e0e0e0;strokeColor=#c0c0c0;buttonText=;strokeColor2=#222222;fontColor=#222222;fontSize=8;spacingTop=2;align=center;" vertex="1" parent="1">
          <mxGeometry x="306.5" y="116" width="165" height="12.5" as="geometry" />
        </mxCell>
        <mxCell id="UJMu3p_16USaffAU7RMf-10" value="east1 DMZ VPC" style="sketch=0;outlineConnect=0;gradientColor=none;html=1;whiteSpace=wrap;fontSize=12;fontStyle=0;shape=mxgraph.aws4.group;grIcon=mxgraph.aws4.group_vpc;strokeColor=#879196;fillColor=none;verticalAlign=top;align=left;spacingLeft=30;fontColor=#879196;dashed=0;" vertex="1" parent="1">
          <mxGeometry x="30" y="280" width="130" height="130" as="geometry" />
        </mxCell>
        <mxCell id="UJMu3p_16USaffAU7RMf-11" value="esat2 DM2 VPC" style="sketch=0;outlineConnect=0;gradientColor=none;html=1;whiteSpace=wrap;fontSize=12;fontStyle=0;shape=mxgraph.aws4.group;grIcon=mxgraph.aws4.group_vpc;strokeColor=#879196;fillColor=none;verticalAlign=top;align=left;spacingLeft=30;fontColor=#879196;dashed=0;" vertex="1" parent="1">
          <mxGeometry x="697" y="280" width="130" height="130" as="geometry" />
        </mxCell>
        <mxCell id="UJMu3p_16USaffAU7RMf-14" value="https://east1-api.zizi.press/gtw/*" style="html=1;strokeWidth=1;shadow=0;dashed=0;shape=mxgraph.ios7ui.url;fillColor=#e0e0e0;strokeColor=#c0c0c0;buttonText=;strokeColor2=#222222;fontColor=#222222;fontSize=8;spacingTop=2;align=center;" vertex="1" parent="1">
          <mxGeometry x="24.08" y="220" width="140" height="12.5" as="geometry" />
        </mxCell>
        <mxCell id="UJMu3p_16USaffAU7RMf-15" value="https://eat2-api.zizi.press/gtw/*" style="html=1;strokeWidth=1;shadow=0;dashed=0;shape=mxgraph.ios7ui.url;fillColor=#e0e0e0;strokeColor=#c0c0c0;buttonText=;strokeColor2=#222222;fontColor=#222222;fontSize=8;spacingTop=2;align=center;" vertex="1" parent="1">
          <mxGeometry x="690" y="220" width="150" height="12.5" as="geometry" />
        </mxCell>
        <mxCell id="UJMu3p_16USaffAU7RMf-16" value="" style="sketch=0;aspect=fixed;html=1;points=[];align=center;image;fontSize=12;image=img/lib/mscae/Network_Security_Groups_Classic.svg;" vertex="1" parent="1">
          <mxGeometry x="83.9" y="232.5" width="20.35" height="27.5" as="geometry" />
        </mxCell>
        <mxCell id="UJMu3p_16USaffAU7RMf-17" value="" style="edgeStyle=orthogonalEdgeStyle;rounded=0;orthogonalLoop=1;jettySize=auto;html=1;endArrow=none;" edge="1" parent="1" source="UJMu3p_16USaffAU7RMf-2" target="UJMu3p_16USaffAU7RMf-16">
          <mxGeometry relative="1" as="geometry">
            <mxPoint x="339" y="180" as="sourcePoint" />
            <mxPoint x="95" y="280" as="targetPoint" />
          </mxGeometry>
        </mxCell>
        <mxCell id="UJMu3p_16USaffAU7RMf-18" value="" style="sketch=0;aspect=fixed;html=1;points=[];align=center;image;fontSize=12;image=img/lib/mscae/Network_Security_Groups_Classic.svg;" vertex="1" parent="1">
          <mxGeometry x="751.8299999999999" y="232.5" width="20.35" height="27.5" as="geometry" />
        </mxCell>
        <mxCell id="UJMu3p_16USaffAU7RMf-19" value="" style="edgeStyle=orthogonalEdgeStyle;rounded=0;orthogonalLoop=1;jettySize=auto;html=1;endArrow=none;" edge="1" parent="1" source="UJMu3p_16USaffAU7RMf-2" target="UJMu3p_16USaffAU7RMf-18">
          <mxGeometry relative="1" as="geometry">
            <mxPoint x="439" y="180" as="sourcePoint" />
            <mxPoint x="762.0000000000002" y="280" as="targetPoint" />
          </mxGeometry>
        </mxCell>
        <mxCell id="UJMu3p_16USaffAU7RMf-20" value="VPC" style="points=[[0,0],[0.25,0],[0.5,0],[0.75,0],[1,0],[1,0.25],[1,0.5],[1,0.75],[1,1],[0.75,1],[0.5,1],[0.25,1],[0,1],[0,0.75],[0,0.5],[0,0.25]];outlineConnect=0;gradientColor=none;html=1;whiteSpace=wrap;fontSize=12;fontStyle=0;container=1;pointerEvents=0;collapsible=0;recursiveResize=0;shape=mxgraph.aws4.group;grIcon=mxgraph.aws4.group_vpc;strokeColor=#248814;fillColor=none;verticalAlign=top;align=left;spacingLeft=30;fontColor=#AAB7B8;dashed=0;" vertex="1" parent="1">
          <mxGeometry x="29.08" y="490" width="220.92" height="230" as="geometry" />
        </mxCell>
        <mxCell id="UJMu3p_16USaffAU7RMf-21" value="VPC" style="points=[[0,0],[0.25,0],[0.5,0],[0.75,0],[1,0],[1,0.25],[1,0.5],[1,0.75],[1,1],[0.75,1],[0.5,1],[0.25,1],[0,1],[0,0.75],[0,0.5],[0,0.25]];outlineConnect=0;gradientColor=none;html=1;whiteSpace=wrap;fontSize=12;fontStyle=0;container=1;pointerEvents=0;collapsible=0;recursiveResize=0;shape=mxgraph.aws4.group;grIcon=mxgraph.aws4.group_vpc;strokeColor=#248814;fillColor=none;verticalAlign=top;align=left;spacingLeft=30;fontColor=#AAB7B8;dashed=0;" vertex="1" parent="1">
          <mxGeometry x="694" y="500" width="156" height="220" as="geometry" />
        </mxCell>
        <mxCell id="UJMu3p_16USaffAU7RMf-24" value="" style="outlineConnect=0;dashed=0;verticalLabelPosition=bottom;verticalAlign=top;align=center;html=1;shape=mxgraph.aws3.vpc_peering;fillColor=#F58536;gradientColor=none;" vertex="1" parent="1">
          <mxGeometry x="390" y="400" width="69" height="72" as="geometry" />
        </mxCell>
      </root>
    </mxGraphModel>
  </diagram>
</mxfile>
